<?xml version="1.0" encoding="UTF-8"?>
<svg xmlns="http://www.w3.org/2000/svg" xmlns:xlink="http://www.w3.org/1999/xlink" width="25px" height="25px" viewBox="0 0 25 25" version="1.1">
<g id="surface1">
<path style=" stroke:none;fill-rule:nonzero;fill:rgb(100%,100%,100%);fill-opacity:1;" d="M 21.660156 18.902344 L 15.253906 12.46875 L 21.675781 6.125 C 21.9375 5.859375 21.9375 5.429688 21.675781 5.167969 L 19.847656 3.332031 C 19.722656 3.203125 19.550781 3.136719 19.371094 3.136719 C 19.1875 3.136719 19.019531 3.207031 18.890625 3.332031 L 12.5 9.65625 L 6.097656 3.335938 C 5.972656 3.207031 5.800781 3.140625 5.621094 3.140625 C 5.4375 3.140625 5.269531 3.210938 5.140625 3.335938 L 3.320312 5.171875 C 3.054688 5.433594 3.054688 5.863281 3.320312 6.128906 L 9.742188 12.476562 L 3.339844 18.902344 C 3.214844 19.027344 3.140625 19.199219 3.140625 19.378906 C 3.140625 19.5625 3.207031 19.730469 3.339844 19.859375 L 5.167969 21.695312 C 5.296875 21.828125 5.46875 21.894531 5.644531 21.894531 C 5.816406 21.894531 5.992188 21.832031 6.125 21.695312 L 12.5 15.289062 L 18.882812 21.691406 C 19.015625 21.820312 19.183594 21.890625 19.359375 21.890625 C 19.53125 21.890625 19.707031 21.828125 19.839844 21.691406 L 21.664062 19.851562 C 21.792969 19.726562 21.867188 19.554688 21.867188 19.375 C 21.859375 19.199219 21.789062 19.027344 21.660156 18.902344 Z M 21.660156 18.902344 "/>
</g>
</svg>
